<?xml version="1.0" standalone="no"?>
<!DOCTYPE svg PUBLIC "-//W3C//DTD SVG 20010904//EN"
 "http://www.w3.org/TR/2001/REC-SVG-20010904/DTD/svg10.dtd">
<svg version="1.0" xmlns="http://www.w3.org/2000/svg"
 style="width:100%;height:100%;" viewBox="0 0 1024.000000 1024.000000"
 preserveAspectRatio="xMidYMid meet">
<metadata>
Created by potrace 1.16, written by Peter Selinger 2001-2019
</metadata>
<g transform="translate(0.000000,1024.000000) scale(0.100000,-0.100000)"
fill="#000000" stroke="none">
<path d="M4960 9583 c-130 -4 -321 -23 -449 -44 -1110 -177 -1774 -916 -2096
-2332 -142 -627 -225 -1506 -225 -2388 l0 -266 123 -97 c493 -388 1526 -1091
2677 -1823 111 -70 128 -78 145 -68 1207 764 2252 1473 2774 1883 l134 105 -6
451 c-7 529 -28 894 -72 1296 -122 1088 -374 1858 -787 2403 -82 108 -262 292
-368 377 -385 307 -847 463 -1474 500 -163 9 -203 10 -376 3z m457 -2196 c135
-99 327 -292 415 -417 167 -236 270 -481 324 -772 22 -113 30 -446 15 -579
-25 -220 -85 -451 -173 -674 -103 -260 -309 -607 -504 -850 -90 -111 -330
-365 -345 -365 -5 0 -10 856 -12 1903 l-2 1902 -3 -1905 c-1 -1048 -2 -1911
-2 -1917 0 -32 -38 -2 -181 145 -764 783 -1078 1788 -812 2605 47 143 164 376
250 496 165 230 425 458 648 569 l79 40 98 -51 c54 -28 146 -86 205 -130z"/>
<path d="M1480 1408 l0 -528 115 0 115 0 0 190 0 190 150 0 c212 0 303 24 377
102 58 60 78 120 78 233 0 89 -3 106 -28 157 -16 32 -48 75 -74 98 -77 68
-108 73 -441 79 l-292 6 0 -527z m551 304 c92 -56 83 -208 -14 -253 -34 -15
-66 -19 -174 -19 l-133 0 0 151 0 151 143 -4 c127 -3 146 -5 178 -26z"/>
<path d="M8188 1872 l-98 -3 0 -114 0 -115 -65 0 -65 0 0 -70 0 -70 65 0 65 0
0 -214 c0 -294 12 -344 91 -391 28 -16 56 -21 152 -24 l117 -3 0 81 0 81 -55
0 c-42 0 -60 5 -75 20 -19 19 -20 33 -20 235 l0 215 75 0 75 0 0 70 0 70 -75
0 -75 0 0 114 c0 63 -3 116 -7 118 -5 2 -52 2 -105 0z"/>
<path d="M3162 1639 c-83 -27 -144 -85 -166 -160 -9 -29 -16 -56 -16 -61 0 -4
44 -8 98 -8 l98 0 13 36 c18 51 61 74 139 74 95 0 142 -31 142 -95 0 -62 -21
-71 -264 -110 -108 -17 -185 -51 -215 -94 -76 -109 -40 -272 74 -330 97 -50
261 -39 354 23 l49 33 7 -33 6 -34 106 0 c105 0 105 0 98 23 -5 12 -11 155
-14 317 -4 196 -10 302 -18 315 -20 35 -67 73 -118 97 -42 19 -70 23 -180 25
-109 2 -140 0 -193 -18z m308 -449 c0 -33 -6 -75 -14 -93 -52 -126 -269 -143
-292 -23 -14 77 32 116 170 141 50 9 98 20 106 25 26 17 30 11 30 -50z"/>
<path d="M4722 1643 c-43 -15 -103 -65 -134 -113 -17 -25 -17 -24 -17 43 l-1
67 -100 0 -100 0 0 -380 0 -380 105 0 105 0 0 195 c0 229 8 278 56 334 42 48
87 64 167 60 l57 -4 0 98 0 97 -47 -1 c-27 0 -67 -7 -91 -16z"/>
<path d="M5858 1644 c-47 -14 -106 -63 -140 -114 -17 -25 -17 -24 -17 43 l-1
67 -100 0 -100 0 0 -380 0 -380 104 0 104 0 4 223 c3 207 5 225 25 264 13 23
39 54 60 70 31 24 47 28 115 32 l78 3 0 94 0 94 -42 -1 c-24 0 -64 -7 -90 -15z"/>
<path d="M6843 1642 c-146 -52 -238 -176 -250 -336 -15 -192 64 -342 217 -415
50 -24 66 -26 175 -26 109 0 125 2 176 26 152 72 228 211 216 399 -3 52 -13
107 -27 142 -28 76 -104 159 -178 195 -50 24 -71 27 -167 30 -88 3 -121 0
-162 -15z m204 -143 c73 -27 115 -101 121 -214 6 -118 -22 -198 -88 -247 -54
-39 -148 -35 -200 9 -58 49 -75 95 -75 213 0 113 15 159 67 207 44 41 116 55
175 32z"/>
</g>
</svg>
